<svg width="1843" height="684" viewBox="0 0 1843 684" fill="none" xmlns="http://www.w3.org/2000/svg">
<g opacity="0.16">
<path d="M21.5274 98H47.5034V2.12H28.3274L0.447388 10.008L5.47939 30.408L21.5274 26.736V98Z" fill="white"/>
<path d="M106.238 99.904C133.438 99.904 150.438 77.328 150.438 50.4C150.438 23.2 133.574 0.895996 106.51 0.895996C79.4464 0.895996 62.3104 23.472 62.3104 50.4C62.3104 77.6 79.0384 99.904 106.238 99.904ZM106.51 76.512C95.9024 76.512 88.8304 65.632 88.8304 50.4C88.8304 34.896 95.7664 24.288 106.238 24.288C116.71 24.288 123.918 35.304 123.918 50.4C123.918 65.768 117.118 76.512 106.51 76.512Z" fill="white"/>
<path d="M205.582 99.904C232.782 99.904 249.782 77.328 249.782 50.4C249.782 23.2 232.918 0.895996 205.854 0.895996C178.79 0.895996 161.654 23.472 161.654 50.4C161.654 77.6 178.382 99.904 205.582 99.904ZM205.854 76.512C195.246 76.512 188.174 65.632 188.174 50.4C188.174 34.896 195.11 24.288 205.582 24.288C216.054 24.288 223.262 35.304 223.262 50.4C223.262 65.768 216.462 76.512 205.854 76.512Z" fill="white"/>
<path d="M275.598 98H301.574V2.12H282.398L254.518 10.008L259.55 30.408L275.598 26.736V98Z" fill="white"/>
<path d="M360.309 99.904C387.509 99.904 404.509 77.328 404.509 50.4C404.509 23.2 387.645 0.895996 360.581 0.895996C333.517 0.895996 316.381 23.472 316.381 50.4C316.381 77.6 333.109 99.904 360.309 99.904ZM360.581 76.512C349.973 76.512 342.901 65.632 342.901 50.4C342.901 34.896 349.837 24.288 360.309 24.288C370.781 24.288 377.989 35.304 377.989 50.4C377.989 65.768 371.189 76.512 360.581 76.512Z" fill="white"/>
<path d="M430.324 98H456.3V2.12H437.124L409.244 10.008L414.276 30.408L430.324 26.736V98Z" fill="white"/>
<path d="M515.035 99.904C542.235 99.904 559.235 77.328 559.235 50.4C559.235 23.2 542.371 0.895996 515.307 0.895996C488.243 0.895996 471.107 23.472 471.107 50.4C471.107 77.6 487.835 99.904 515.035 99.904ZM515.307 76.512C504.699 76.512 497.627 65.632 497.627 50.4C497.627 34.896 504.563 24.288 515.035 24.288C525.507 24.288 532.715 35.304 532.715 50.4C532.715 65.768 525.915 76.512 515.307 76.512Z" fill="white"/>
<path d="M614.379 99.904C641.579 99.904 658.579 77.328 658.579 50.4C658.579 23.2 641.715 0.895996 614.651 0.895996C587.587 0.895996 570.451 23.472 570.451 50.4C570.451 77.6 587.179 99.904 614.379 99.904ZM614.651 76.512C604.043 76.512 596.971 65.632 596.971 50.4C596.971 34.896 603.907 24.288 614.379 24.288C624.851 24.288 632.059 35.304 632.059 50.4C632.059 65.768 625.259 76.512 614.651 76.512Z" fill="white"/>
<path d="M684.395 98H710.371V2.12H691.195L663.315 10.008L668.347 30.408L684.395 26.736V98Z" fill="white"/>
<path d="M769.106 99.904C796.306 99.904 813.306 77.328 813.306 50.4C813.306 23.2 796.442 0.895996 769.378 0.895996C742.314 0.895996 725.178 23.472 725.178 50.4C725.178 77.6 741.906 99.904 769.106 99.904ZM769.378 76.512C758.77 76.512 751.698 65.632 751.698 50.4C751.698 34.896 758.634 24.288 769.106 24.288C779.578 24.288 786.786 35.304 786.786 50.4C786.786 65.768 779.986 76.512 769.378 76.512Z" fill="white"/>
<path d="M868.449 99.904C895.649 99.904 912.649 77.328 912.649 50.4C912.649 23.2 895.785 0.895996 868.721 0.895996C841.657 0.895996 824.521 23.472 824.521 50.4C824.521 77.6 841.249 99.904 868.449 99.904ZM868.721 76.512C858.113 76.512 851.041 65.632 851.041 50.4C851.041 34.896 857.977 24.288 868.449 24.288C878.921 24.288 886.129 35.304 886.129 50.4C886.129 65.768 879.329 76.512 868.721 76.512Z" fill="white"/>
<path d="M938.465 98H964.441V2.12H945.265L917.385 10.008L922.417 30.408L938.465 26.736V98Z" fill="white"/>
<path d="M995.84 98H1021.82V2.12H1002.64L974.76 10.008L979.792 30.408L995.84 26.736V98Z" fill="white"/>
<path d="M1080.55 99.904C1107.75 99.904 1124.75 77.328 1124.75 50.4C1124.75 23.2 1107.89 0.895996 1080.82 0.895996C1053.76 0.895996 1036.62 23.472 1036.62 50.4C1036.62 77.6 1053.35 99.904 1080.55 99.904ZM1080.82 76.512C1070.21 76.512 1063.14 65.632 1063.14 50.4C1063.14 34.896 1070.08 24.288 1080.55 24.288C1091.02 24.288 1098.23 35.304 1098.23 50.4C1098.23 65.768 1091.43 76.512 1080.82 76.512Z" fill="white"/>
<path d="M1150.57 98H1176.54V2.12H1157.37L1129.49 10.008L1134.52 30.408L1150.57 26.736V98Z" fill="white"/>
<path d="M1235.28 99.904C1262.48 99.904 1279.48 77.328 1279.48 50.4C1279.48 23.2 1262.61 0.895996 1235.55 0.895996C1208.49 0.895996 1191.35 23.472 1191.35 50.4C1191.35 77.6 1208.08 99.904 1235.28 99.904ZM1235.55 76.512C1224.94 76.512 1217.87 65.632 1217.87 50.4C1217.87 34.896 1224.81 24.288 1235.28 24.288C1245.75 24.288 1252.96 35.304 1252.96 50.4C1252.96 65.768 1246.16 76.512 1235.55 76.512Z" fill="white"/>
<path d="M1305.29 98H1331.27V2.12H1312.09L1284.21 10.008L1289.24 30.408L1305.29 26.736V98Z" fill="white"/>
<path d="M1390 99.904C1417.2 99.904 1434.2 77.328 1434.2 50.4C1434.2 23.2 1417.34 0.895996 1390.28 0.895996C1363.21 0.895996 1346.08 23.472 1346.08 50.4C1346.08 77.6 1362.8 99.904 1390 99.904ZM1390.28 76.512C1379.67 76.512 1372.6 65.632 1372.6 50.4C1372.6 34.896 1379.53 24.288 1390 24.288C1400.48 24.288 1407.68 35.304 1407.68 50.4C1407.68 65.768 1400.88 76.512 1390.28 76.512Z" fill="white"/>
<path d="M1460.02 98H1486V2.12H1466.82L1438.94 10.008L1443.97 30.408L1460.02 26.736V98Z" fill="white"/>
<path d="M1544.73 99.904C1571.93 99.904 1588.93 77.328 1588.93 50.4C1588.93 23.2 1572.07 0.895996 1545 0.895996C1517.94 0.895996 1500.8 23.472 1500.8 50.4C1500.8 77.6 1517.53 99.904 1544.73 99.904ZM1545 76.512C1534.39 76.512 1527.32 65.632 1527.32 50.4C1527.32 34.896 1534.26 24.288 1544.73 24.288C1555.2 24.288 1562.41 35.304 1562.41 50.4C1562.41 65.768 1555.61 76.512 1545 76.512Z" fill="white"/>
<path d="M1644.07 99.904C1671.27 99.904 1688.27 77.328 1688.27 50.4C1688.27 23.2 1671.41 0.895996 1644.35 0.895996C1617.28 0.895996 1600.15 23.472 1600.15 50.4C1600.15 77.6 1616.87 99.904 1644.07 99.904ZM1644.35 76.512C1633.74 76.512 1626.67 65.632 1626.67 50.4C1626.67 34.896 1633.6 24.288 1644.07 24.288C1654.55 24.288 1661.75 35.304 1661.75 50.4C1661.75 65.768 1654.95 76.512 1644.35 76.512Z" fill="white"/>
<path d="M1714.09 98H1740.07V2.12H1720.89L1693.01 10.008L1698.04 30.408L1714.09 26.736V98Z" fill="white"/>
<path d="M1798.8 99.904C1826 99.904 1843 77.328 1843 50.4C1843 23.2 1826.14 0.895996 1799.07 0.895996C1772.01 0.895996 1754.87 23.472 1754.87 50.4C1754.87 77.6 1771.6 99.904 1798.8 99.904ZM1799.07 76.512C1788.46 76.512 1781.39 65.632 1781.39 50.4C1781.39 34.896 1788.33 24.288 1798.8 24.288C1809.27 24.288 1816.48 35.304 1816.48 50.4C1816.48 65.768 1809.68 76.512 1799.07 76.512Z" fill="white"/>
</g>
<g opacity="0.02">
<path d="M21.5274 536H47.5034V440.12H28.3274L0.447388 448.008L5.47939 468.408L21.5274 464.736V536Z" fill="white"/>
<path d="M106.238 537.904C133.438 537.904 150.438 515.328 150.438 488.4C150.438 461.2 133.574 438.896 106.51 438.896C79.4464 438.896 62.3104 461.472 62.3104 488.4C62.3104 515.6 79.0384 537.904 106.238 537.904ZM106.51 514.512C95.9024 514.512 88.8304 503.632 88.8304 488.4C88.8304 472.896 95.7664 462.288 106.238 462.288C116.71 462.288 123.918 473.304 123.918 488.4C123.918 503.768 117.118 514.512 106.51 514.512Z" fill="white"/>
<path d="M205.582 537.904C232.782 537.904 249.782 515.328 249.782 488.4C249.782 461.2 232.918 438.896 205.854 438.896C178.79 438.896 161.654 461.472 161.654 488.4C161.654 515.6 178.382 537.904 205.582 537.904ZM205.854 514.512C195.246 514.512 188.174 503.632 188.174 488.4C188.174 472.896 195.11 462.288 205.582 462.288C216.054 462.288 223.262 473.304 223.262 488.4C223.262 503.768 216.462 514.512 205.854 514.512Z" fill="white"/>
<path d="M275.598 536H301.574V440.12H282.398L254.518 448.008L259.55 468.408L275.598 464.736V536Z" fill="white"/>
<path d="M360.309 537.904C387.509 537.904 404.509 515.328 404.509 488.4C404.509 461.2 387.645 438.896 360.581 438.896C333.517 438.896 316.381 461.472 316.381 488.4C316.381 515.6 333.109 537.904 360.309 537.904ZM360.581 514.512C349.973 514.512 342.901 503.632 342.901 488.4C342.901 472.896 349.837 462.288 360.309 462.288C370.781 462.288 377.989 473.304 377.989 488.4C377.989 503.768 371.189 514.512 360.581 514.512Z" fill="white"/>
<path d="M430.324 536H456.3V440.12H437.124L409.244 448.008L414.276 468.408L430.324 464.736V536Z" fill="white"/>
<path d="M515.035 537.904C542.235 537.904 559.235 515.328 559.235 488.4C559.235 461.2 542.371 438.896 515.307 438.896C488.243 438.896 471.107 461.472 471.107 488.4C471.107 515.6 487.835 537.904 515.035 537.904ZM515.307 514.512C504.699 514.512 497.627 503.632 497.627 488.4C497.627 472.896 504.563 462.288 515.035 462.288C525.507 462.288 532.715 473.304 532.715 488.4C532.715 503.768 525.915 514.512 515.307 514.512Z" fill="white"/>
<path d="M614.379 537.904C641.579 537.904 658.579 515.328 658.579 488.4C658.579 461.2 641.715 438.896 614.651 438.896C587.587 438.896 570.451 461.472 570.451 488.4C570.451 515.6 587.179 537.904 614.379 537.904ZM614.651 514.512C604.043 514.512 596.971 503.632 596.971 488.4C596.971 472.896 603.907 462.288 614.379 462.288C624.851 462.288 632.059 473.304 632.059 488.4C632.059 503.768 625.259 514.512 614.651 514.512Z" fill="white"/>
<path d="M684.395 536H710.371V440.12H691.195L663.315 448.008L668.347 468.408L684.395 464.736V536Z" fill="white"/>
<path d="M769.106 537.904C796.306 537.904 813.306 515.328 813.306 488.4C813.306 461.2 796.442 438.896 769.378 438.896C742.314 438.896 725.178 461.472 725.178 488.4C725.178 515.6 741.906 537.904 769.106 537.904ZM769.378 514.512C758.77 514.512 751.698 503.632 751.698 488.4C751.698 472.896 758.634 462.288 769.106 462.288C779.578 462.288 786.786 473.304 786.786 488.4C786.786 503.768 779.986 514.512 769.378 514.512Z" fill="white"/>
<path d="M868.449 537.904C895.649 537.904 912.649 515.328 912.649 488.4C912.649 461.2 895.785 438.896 868.721 438.896C841.657 438.896 824.521 461.472 824.521 488.4C824.521 515.6 841.249 537.904 868.449 537.904ZM868.721 514.512C858.113 514.512 851.041 503.632 851.041 488.4C851.041 472.896 857.977 462.288 868.449 462.288C878.921 462.288 886.129 473.304 886.129 488.4C886.129 503.768 879.329 514.512 868.721 514.512Z" fill="white"/>
<path d="M938.465 536H964.441V440.12H945.265L917.385 448.008L922.417 468.408L938.465 464.736V536Z" fill="white"/>
<path d="M995.84 536H1021.82V440.12H1002.64L974.76 448.008L979.792 468.408L995.84 464.736V536Z" fill="white"/>
<path d="M1080.55 537.904C1107.75 537.904 1124.75 515.328 1124.75 488.4C1124.75 461.2 1107.89 438.896 1080.82 438.896C1053.76 438.896 1036.62 461.472 1036.62 488.4C1036.62 515.6 1053.35 537.904 1080.55 537.904ZM1080.82 514.512C1070.21 514.512 1063.14 503.632 1063.14 488.4C1063.14 472.896 1070.08 462.288 1080.55 462.288C1091.02 462.288 1098.23 473.304 1098.23 488.4C1098.23 503.768 1091.43 514.512 1080.82 514.512Z" fill="white"/>
<path d="M1150.57 536H1176.54V440.12H1157.37L1129.49 448.008L1134.52 468.408L1150.57 464.736V536Z" fill="white"/>
<path d="M1235.28 537.904C1262.48 537.904 1279.48 515.328 1279.48 488.4C1279.48 461.2 1262.61 438.896 1235.55 438.896C1208.49 438.896 1191.35 461.472 1191.35 488.4C1191.35 515.6 1208.08 537.904 1235.28 537.904ZM1235.55 514.512C1224.94 514.512 1217.87 503.632 1217.87 488.4C1217.87 472.896 1224.81 462.288 1235.28 462.288C1245.75 462.288 1252.96 473.304 1252.96 488.4C1252.96 503.768 1246.16 514.512 1235.55 514.512Z" fill="white"/>
<path d="M1305.29 536H1331.27V440.12H1312.09L1284.21 448.008L1289.24 468.408L1305.29 464.736V536Z" fill="white"/>
<path d="M1390 537.904C1417.2 537.904 1434.2 515.328 1434.2 488.4C1434.2 461.2 1417.34 438.896 1390.28 438.896C1363.21 438.896 1346.08 461.472 1346.08 488.4C1346.08 515.6 1362.8 537.904 1390 537.904ZM1390.28 514.512C1379.67 514.512 1372.6 503.632 1372.6 488.4C1372.6 472.896 1379.53 462.288 1390 462.288C1400.48 462.288 1407.68 473.304 1407.68 488.4C1407.68 503.768 1400.88 514.512 1390.28 514.512Z" fill="white"/>
<path d="M1460.02 536H1486V440.12H1466.82L1438.94 448.008L1443.97 468.408L1460.02 464.736V536Z" fill="white"/>
<path d="M1544.73 537.904C1571.93 537.904 1588.93 515.328 1588.93 488.4C1588.93 461.2 1572.07 438.896 1545 438.896C1517.94 438.896 1500.8 461.472 1500.8 488.4C1500.8 515.6 1517.53 537.904 1544.73 537.904ZM1545 514.512C1534.39 514.512 1527.32 503.632 1527.32 488.4C1527.32 472.896 1534.26 462.288 1544.73 462.288C1555.2 462.288 1562.41 473.304 1562.41 488.4C1562.41 503.768 1555.61 514.512 1545 514.512Z" fill="white"/>
<path d="M1644.07 537.904C1671.27 537.904 1688.27 515.328 1688.27 488.4C1688.27 461.2 1671.41 438.896 1644.35 438.896C1617.28 438.896 1600.15 461.472 1600.15 488.4C1600.15 515.6 1616.87 537.904 1644.07 537.904ZM1644.35 514.512C1633.74 514.512 1626.67 503.632 1626.67 488.4C1626.67 472.896 1633.6 462.288 1644.07 462.288C1654.55 462.288 1661.75 473.304 1661.75 488.4C1661.75 503.768 1654.95 514.512 1644.35 514.512Z" fill="white"/>
<path d="M1714.09 536H1740.07V440.12H1720.89L1693.01 448.008L1698.04 468.408L1714.09 464.736V536Z" fill="white"/>
<path d="M1798.8 537.904C1826 537.904 1843 515.328 1843 488.4C1843 461.2 1826.14 438.896 1799.07 438.896C1772.01 438.896 1754.87 461.472 1754.87 488.4C1754.87 515.6 1771.6 537.904 1798.8 537.904ZM1799.07 514.512C1788.46 514.512 1781.39 503.632 1781.39 488.4C1781.39 472.896 1788.33 462.288 1798.8 462.288C1809.27 462.288 1816.48 473.304 1816.48 488.4C1816.48 503.768 1809.68 514.512 1799.07 514.512Z" fill="white"/>
</g>
<g opacity="0.08">
<path d="M40.5196 244H66.4956V148.12H47.3196L19.4396 156.008L24.4716 176.408L40.5196 172.736V244Z" fill="white"/>
<path d="M97.8946 244H123.871V148.12H104.695L76.8146 156.008L81.8466 176.408L97.8946 172.736V244Z" fill="white"/>
<path d="M182.606 245.904C209.806 245.904 226.806 223.328 226.806 196.4C226.806 169.2 209.942 146.896 182.878 146.896C155.814 146.896 138.678 169.472 138.678 196.4C138.678 223.6 155.406 245.904 182.606 245.904ZM182.878 222.512C172.27 222.512 165.198 211.632 165.198 196.4C165.198 180.896 172.134 170.288 182.606 170.288C193.078 170.288 200.286 181.304 200.286 196.4C200.286 211.768 193.486 222.512 182.878 222.512Z" fill="white"/>
<path d="M252.621 244H278.597V148.12H259.421L231.541 156.008L236.573 176.408L252.621 172.736V244Z" fill="white"/>
<path d="M337.332 245.904C364.532 245.904 381.532 223.328 381.532 196.4C381.532 169.2 364.668 146.896 337.604 146.896C310.54 146.896 293.404 169.472 293.404 196.4C293.404 223.6 310.132 245.904 337.332 245.904ZM337.604 222.512C326.996 222.512 319.924 211.632 319.924 196.4C319.924 180.896 326.86 170.288 337.332 170.288C347.804 170.288 355.012 181.304 355.012 196.4C355.012 211.768 348.212 222.512 337.604 222.512Z" fill="white"/>
<path d="M436.676 245.904C463.876 245.904 480.876 223.328 480.876 196.4C480.876 169.2 464.012 146.896 436.948 146.896C409.884 146.896 392.748 169.472 392.748 196.4C392.748 223.6 409.476 245.904 436.676 245.904ZM436.948 222.512C426.34 222.512 419.268 211.632 419.268 196.4C419.268 180.896 426.204 170.288 436.676 170.288C447.148 170.288 454.356 181.304 454.356 196.4C454.356 211.768 447.556 222.512 436.948 222.512Z" fill="white"/>
<path d="M536.02 245.904C563.22 245.904 580.22 223.328 580.22 196.4C580.22 169.2 563.356 146.896 536.292 146.896C509.228 146.896 492.092 169.472 492.092 196.4C492.092 223.6 508.82 245.904 536.02 245.904ZM536.292 222.512C525.684 222.512 518.612 211.632 518.612 196.4C518.612 180.896 525.548 170.288 536.02 170.288C546.492 170.288 553.7 181.304 553.7 196.4C553.7 211.768 546.9 222.512 536.292 222.512Z" fill="white"/>
<path d="M606.035 244H632.011V148.12H612.835L584.955 156.008L589.987 176.408L606.035 172.736V244Z" fill="white"/>
<path d="M690.746 245.904C717.946 245.904 734.946 223.328 734.946 196.4C734.946 169.2 718.082 146.896 691.018 146.896C663.954 146.896 646.818 169.472 646.818 196.4C646.818 223.6 663.546 245.904 690.746 245.904ZM691.018 222.512C680.41 222.512 673.338 211.632 673.338 196.4C673.338 180.896 680.274 170.288 690.746 170.288C701.218 170.288 708.426 181.304 708.426 196.4C708.426 211.768 701.626 222.512 691.018 222.512Z" fill="white"/>
<path d="M790.09 245.904C817.29 245.904 834.29 223.328 834.29 196.4C834.29 169.2 817.426 146.896 790.362 146.896C763.298 146.896 746.162 169.472 746.162 196.4C746.162 223.6 762.89 245.904 790.09 245.904ZM790.362 222.512C779.754 222.512 772.682 211.632 772.682 196.4C772.682 180.896 779.618 170.288 790.09 170.288C800.562 170.288 807.77 181.304 807.77 196.4C807.77 211.768 800.97 222.512 790.362 222.512Z" fill="white"/>
<path d="M860.106 244H886.082V148.12H866.906L839.026 156.008L844.057 176.408L860.106 172.736V244Z" fill="white"/>
<path d="M944.817 245.904C972.017 245.904 989.017 223.328 989.017 196.4C989.017 169.2 972.152 146.896 945.089 146.896C918.024 146.896 900.888 169.472 900.888 196.4C900.888 223.6 917.617 245.904 944.817 245.904ZM945.089 222.512C934.48 222.512 927.409 211.632 927.409 196.4C927.409 180.896 934.345 170.288 944.817 170.288C955.289 170.288 962.497 181.304 962.497 196.4C962.497 211.768 955.697 222.512 945.089 222.512Z" fill="white"/>
<path d="M1014.83 244H1040.81V148.12H1021.63L993.752 156.008L998.784 176.408L1014.83 172.736V244Z" fill="white"/>
<path d="M1072.21 244H1098.18V148.12H1079.01L1051.13 156.008L1056.16 176.408L1072.21 172.736V244Z" fill="white"/>
<path d="M1156.92 245.904C1184.12 245.904 1201.12 223.328 1201.12 196.4C1201.12 169.2 1184.25 146.896 1157.19 146.896C1130.13 146.896 1112.99 169.472 1112.99 196.4C1112.99 223.6 1129.72 245.904 1156.92 245.904ZM1157.19 222.512C1146.58 222.512 1139.51 211.632 1139.51 196.4C1139.51 180.896 1146.45 170.288 1156.92 170.288C1167.39 170.288 1174.6 181.304 1174.6 196.4C1174.6 211.768 1167.8 222.512 1157.19 222.512Z" fill="white"/>
<path d="M1226.93 244H1252.91V148.12H1233.73L1205.85 156.008L1210.89 176.408L1226.93 172.736V244Z" fill="white"/>
<path d="M1284.31 244H1310.28V148.12H1291.11L1263.23 156.008L1268.26 176.408L1284.31 172.736V244Z" fill="white"/>
<path d="M1341.68 244H1367.66V148.12H1348.48L1320.6 156.008L1325.64 176.408L1341.68 172.736V244Z" fill="white"/>
<path d="M1426.39 245.904C1453.59 245.904 1470.59 223.328 1470.59 196.4C1470.59 169.2 1453.73 146.896 1426.67 146.896C1399.6 146.896 1382.47 169.472 1382.47 196.4C1382.47 223.6 1399.19 245.904 1426.39 245.904ZM1426.67 222.512C1416.06 222.512 1408.99 211.632 1408.99 196.4C1408.99 180.896 1415.92 170.288 1426.39 170.288C1436.87 170.288 1444.07 181.304 1444.07 196.4C1444.07 211.768 1437.27 222.512 1426.67 222.512Z" fill="white"/>
<path d="M1525.74 245.904C1552.94 245.904 1569.94 223.328 1569.94 196.4C1569.94 169.2 1553.07 146.896 1526.01 146.896C1498.95 146.896 1481.81 169.472 1481.81 196.4C1481.81 223.6 1498.54 245.904 1525.74 245.904ZM1526.01 222.512C1515.4 222.512 1508.33 211.632 1508.33 196.4C1508.33 180.896 1515.27 170.288 1525.74 170.288C1536.21 170.288 1543.42 181.304 1543.42 196.4C1543.42 211.768 1536.62 222.512 1526.01 222.512Z" fill="white"/>
<path d="M1595.75 244H1621.73V148.12H1602.55L1574.67 156.008L1579.71 176.408L1595.75 172.736V244Z" fill="white"/>
<path d="M1680.46 245.904C1707.66 245.904 1724.66 223.328 1724.66 196.4C1724.66 169.2 1707.8 146.896 1680.74 146.896C1653.67 146.896 1636.54 169.472 1636.54 196.4C1636.54 223.6 1653.27 245.904 1680.46 245.904ZM1680.74 222.512C1670.13 222.512 1663.06 211.632 1663.06 196.4C1663.06 180.896 1669.99 170.288 1680.46 170.288C1690.94 170.288 1698.14 181.304 1698.14 196.4C1698.14 211.768 1691.34 222.512 1680.74 222.512Z" fill="white"/>
<path d="M1779.81 245.904C1807.01 245.904 1824.01 223.328 1824.01 196.4C1824.01 169.2 1807.14 146.896 1780.08 146.896C1753.02 146.896 1735.88 169.472 1735.88 196.4C1735.88 223.6 1752.61 245.904 1779.81 245.904ZM1780.08 222.512C1769.47 222.512 1762.4 211.632 1762.4 196.4C1762.4 180.896 1769.34 170.288 1779.81 170.288C1790.28 170.288 1797.49 181.304 1797.49 196.4C1797.49 211.768 1790.69 222.512 1780.08 222.512Z" fill="white"/>
</g>
<g opacity="0.01">
<path d="M40.5196 682H66.4956V586.12H47.3196L19.4396 594.008L24.4716 614.408L40.5196 610.736V682Z" fill="white"/>
<path d="M97.8946 682H123.871V586.12H104.695L76.8146 594.008L81.8466 614.408L97.8946 610.736V682Z" fill="white"/>
<path d="M182.606 683.904C209.806 683.904 226.806 661.328 226.806 634.4C226.806 607.2 209.942 584.896 182.878 584.896C155.814 584.896 138.678 607.472 138.678 634.4C138.678 661.6 155.406 683.904 182.606 683.904ZM182.878 660.512C172.27 660.512 165.198 649.632 165.198 634.4C165.198 618.896 172.134 608.288 182.606 608.288C193.078 608.288 200.286 619.304 200.286 634.4C200.286 649.768 193.486 660.512 182.878 660.512Z" fill="white"/>
<path d="M252.621 682H278.597V586.12H259.421L231.541 594.008L236.573 614.408L252.621 610.736V682Z" fill="white"/>
<path d="M337.332 683.904C364.532 683.904 381.532 661.328 381.532 634.4C381.532 607.2 364.668 584.896 337.604 584.896C310.54 584.896 293.404 607.472 293.404 634.4C293.404 661.6 310.132 683.904 337.332 683.904ZM337.604 660.512C326.996 660.512 319.924 649.632 319.924 634.4C319.924 618.896 326.86 608.288 337.332 608.288C347.804 608.288 355.012 619.304 355.012 634.4C355.012 649.768 348.212 660.512 337.604 660.512Z" fill="white"/>
<path d="M436.676 683.904C463.876 683.904 480.876 661.328 480.876 634.4C480.876 607.2 464.012 584.896 436.948 584.896C409.884 584.896 392.748 607.472 392.748 634.4C392.748 661.6 409.476 683.904 436.676 683.904ZM436.948 660.512C426.34 660.512 419.268 649.632 419.268 634.4C419.268 618.896 426.204 608.288 436.676 608.288C447.148 608.288 454.356 619.304 454.356 634.4C454.356 649.768 447.556 660.512 436.948 660.512Z" fill="white"/>
<path d="M536.02 683.904C563.22 683.904 580.22 661.328 580.22 634.4C580.22 607.2 563.356 584.896 536.292 584.896C509.228 584.896 492.092 607.472 492.092 634.4C492.092 661.6 508.82 683.904 536.02 683.904ZM536.292 660.512C525.684 660.512 518.612 649.632 518.612 634.4C518.612 618.896 525.548 608.288 536.02 608.288C546.492 608.288 553.7 619.304 553.7 634.4C553.7 649.768 546.9 660.512 536.292 660.512Z" fill="white"/>
<path d="M606.035 682H632.011V586.12H612.835L584.955 594.008L589.987 614.408L606.035 610.736V682Z" fill="white"/>
<path d="M690.746 683.904C717.946 683.904 734.946 661.328 734.946 634.4C734.946 607.2 718.082 584.896 691.018 584.896C663.954 584.896 646.818 607.472 646.818 634.4C646.818 661.6 663.546 683.904 690.746 683.904ZM691.018 660.512C680.41 660.512 673.338 649.632 673.338 634.4C673.338 618.896 680.274 608.288 690.746 608.288C701.218 608.288 708.426 619.304 708.426 634.4C708.426 649.768 701.626 660.512 691.018 660.512Z" fill="white"/>
<path d="M790.09 683.904C817.29 683.904 834.29 661.328 834.29 634.4C834.29 607.2 817.426 584.896 790.362 584.896C763.298 584.896 746.162 607.472 746.162 634.4C746.162 661.6 762.89 683.904 790.09 683.904ZM790.362 660.512C779.754 660.512 772.682 649.632 772.682 634.4C772.682 618.896 779.618 608.288 790.09 608.288C800.562 608.288 807.77 619.304 807.77 634.4C807.77 649.768 800.97 660.512 790.362 660.512Z" fill="white"/>
<path d="M860.106 682H886.082V586.12H866.906L839.026 594.008L844.057 614.408L860.106 610.736V682Z" fill="white"/>
<path d="M944.817 683.904C972.017 683.904 989.017 661.328 989.017 634.4C989.017 607.2 972.152 584.896 945.089 584.896C918.024 584.896 900.888 607.472 900.888 634.4C900.888 661.6 917.617 683.904 944.817 683.904ZM945.089 660.512C934.48 660.512 927.409 649.632 927.409 634.4C927.409 618.896 934.345 608.288 944.817 608.288C955.289 608.288 962.497 619.304 962.497 634.4C962.497 649.768 955.697 660.512 945.089 660.512Z" fill="white"/>
<path d="M1014.83 682H1040.81V586.12H1021.63L993.752 594.008L998.784 614.408L1014.83 610.736V682Z" fill="white"/>
<path d="M1072.21 682H1098.18V586.12H1079.01L1051.13 594.008L1056.16 614.408L1072.21 610.736V682Z" fill="white"/>
<path d="M1156.92 683.904C1184.12 683.904 1201.12 661.328 1201.12 634.4C1201.12 607.2 1184.25 584.896 1157.19 584.896C1130.13 584.896 1112.99 607.472 1112.99 634.4C1112.99 661.6 1129.72 683.904 1156.92 683.904ZM1157.19 660.512C1146.58 660.512 1139.51 649.632 1139.51 634.4C1139.51 618.896 1146.45 608.288 1156.92 608.288C1167.39 608.288 1174.6 619.304 1174.6 634.4C1174.6 649.768 1167.8 660.512 1157.19 660.512Z" fill="white"/>
<path d="M1226.93 682H1252.91V586.12H1233.73L1205.85 594.008L1210.89 614.408L1226.93 610.736V682Z" fill="white"/>
<path d="M1284.31 682H1310.28V586.12H1291.11L1263.23 594.008L1268.26 614.408L1284.31 610.736V682Z" fill="white"/>
<path d="M1341.68 682H1367.66V586.12H1348.48L1320.6 594.008L1325.64 614.408L1341.68 610.736V682Z" fill="white"/>
<path d="M1426.39 683.904C1453.59 683.904 1470.59 661.328 1470.59 634.4C1470.59 607.2 1453.73 584.896 1426.67 584.896C1399.6 584.896 1382.47 607.472 1382.47 634.4C1382.47 661.6 1399.19 683.904 1426.39 683.904ZM1426.67 660.512C1416.06 660.512 1408.99 649.632 1408.99 634.4C1408.99 618.896 1415.92 608.288 1426.39 608.288C1436.87 608.288 1444.07 619.304 1444.07 634.4C1444.07 649.768 1437.27 660.512 1426.67 660.512Z" fill="white"/>
<path d="M1525.74 683.904C1552.94 683.904 1569.94 661.328 1569.94 634.4C1569.94 607.2 1553.07 584.896 1526.01 584.896C1498.95 584.896 1481.81 607.472 1481.81 634.4C1481.81 661.6 1498.54 683.904 1525.74 683.904ZM1526.01 660.512C1515.4 660.512 1508.33 649.632 1508.33 634.4C1508.33 618.896 1515.27 608.288 1525.74 608.288C1536.21 608.288 1543.42 619.304 1543.42 634.4C1543.42 649.768 1536.62 660.512 1526.01 660.512Z" fill="white"/>
<path d="M1595.75 682H1621.73V586.12H1602.55L1574.67 594.008L1579.71 614.408L1595.75 610.736V682Z" fill="white"/>
<path d="M1680.46 683.904C1707.66 683.904 1724.66 661.328 1724.66 634.4C1724.66 607.2 1707.8 584.896 1680.74 584.896C1653.67 584.896 1636.54 607.472 1636.54 634.4C1636.54 661.6 1653.27 683.904 1680.46 683.904ZM1680.74 660.512C1670.13 660.512 1663.06 649.632 1663.06 634.4C1663.06 618.896 1669.99 608.288 1680.46 608.288C1690.94 608.288 1698.14 619.304 1698.14 634.4C1698.14 649.768 1691.34 660.512 1680.74 660.512Z" fill="white"/>
<path d="M1779.81 683.904C1807.01 683.904 1824.01 661.328 1824.01 634.4C1824.01 607.2 1807.14 584.896 1780.08 584.896C1753.02 584.896 1735.88 607.472 1735.88 634.4C1735.88 661.6 1752.61 683.904 1779.81 683.904ZM1780.08 660.512C1769.47 660.512 1762.4 649.632 1762.4 634.4C1762.4 618.896 1769.34 608.288 1779.81 608.288C1790.28 608.288 1797.49 619.304 1797.49 634.4C1797.49 649.768 1790.69 660.512 1780.08 660.512Z" fill="white"/>
</g>
<g opacity="0.04">
<path d="M21.5274 390H47.5034V294.12H28.3274L0.447388 302.008L5.47939 322.408L21.5274 318.736V390Z" fill="white"/>
<path d="M106.238 391.904C133.438 391.904 150.438 369.328 150.438 342.4C150.438 315.2 133.574 292.896 106.51 292.896C79.4464 292.896 62.3104 315.472 62.3104 342.4C62.3104 369.6 79.0384 391.904 106.238 391.904ZM106.51 368.512C95.9024 368.512 88.8304 357.632 88.8304 342.4C88.8304 326.896 95.7664 316.288 106.238 316.288C116.71 316.288 123.918 327.304 123.918 342.4C123.918 357.768 117.118 368.512 106.51 368.512Z" fill="white"/>
<path d="M205.582 391.904C232.782 391.904 249.782 369.328 249.782 342.4C249.782 315.2 232.918 292.896 205.854 292.896C178.79 292.896 161.654 315.472 161.654 342.4C161.654 369.6 178.382 391.904 205.582 391.904ZM205.854 368.512C195.246 368.512 188.174 357.632 188.174 342.4C188.174 326.896 195.11 316.288 205.582 316.288C216.054 316.288 223.262 327.304 223.262 342.4C223.262 357.768 216.462 368.512 205.854 368.512Z" fill="white"/>
<path d="M275.598 390H301.574V294.12H282.398L254.518 302.008L259.55 322.408L275.598 318.736V390Z" fill="white"/>
<path d="M360.309 391.904C387.509 391.904 404.509 369.328 404.509 342.4C404.509 315.2 387.645 292.896 360.581 292.896C333.517 292.896 316.381 315.472 316.381 342.4C316.381 369.6 333.109 391.904 360.309 391.904ZM360.581 368.512C349.973 368.512 342.901 357.632 342.901 342.4C342.901 326.896 349.837 316.288 360.309 316.288C370.781 316.288 377.989 327.304 377.989 342.4C377.989 357.768 371.189 368.512 360.581 368.512Z" fill="white"/>
<path d="M430.324 390H456.3V294.12H437.124L409.244 302.008L414.276 322.408L430.324 318.736V390Z" fill="white"/>
<path d="M515.035 391.904C542.235 391.904 559.235 369.328 559.235 342.4C559.235 315.2 542.371 292.896 515.307 292.896C488.243 292.896 471.107 315.472 471.107 342.4C471.107 369.6 487.835 391.904 515.035 391.904ZM515.307 368.512C504.699 368.512 497.627 357.632 497.627 342.4C497.627 326.896 504.563 316.288 515.035 316.288C525.507 316.288 532.715 327.304 532.715 342.4C532.715 357.768 525.915 368.512 515.307 368.512Z" fill="white"/>
<path d="M614.379 391.904C641.579 391.904 658.579 369.328 658.579 342.4C658.579 315.2 641.715 292.896 614.651 292.896C587.587 292.896 570.451 315.472 570.451 342.4C570.451 369.6 587.179 391.904 614.379 391.904ZM614.651 368.512C604.043 368.512 596.971 357.632 596.971 342.4C596.971 326.896 603.907 316.288 614.379 316.288C624.851 316.288 632.059 327.304 632.059 342.4C632.059 357.768 625.259 368.512 614.651 368.512Z" fill="white"/>
<path d="M684.395 390H710.371V294.12H691.195L663.315 302.008L668.347 322.408L684.395 318.736V390Z" fill="white"/>
<path d="M769.106 391.904C796.306 391.904 813.306 369.328 813.306 342.4C813.306 315.2 796.442 292.896 769.378 292.896C742.314 292.896 725.178 315.472 725.178 342.4C725.178 369.6 741.906 391.904 769.106 391.904ZM769.378 368.512C758.77 368.512 751.698 357.632 751.698 342.4C751.698 326.896 758.634 316.288 769.106 316.288C779.578 316.288 786.786 327.304 786.786 342.4C786.786 357.768 779.986 368.512 769.378 368.512Z" fill="white"/>
<path d="M868.449 391.904C895.649 391.904 912.649 369.328 912.649 342.4C912.649 315.2 895.785 292.896 868.721 292.896C841.657 292.896 824.521 315.472 824.521 342.4C824.521 369.6 841.249 391.904 868.449 391.904ZM868.721 368.512C858.113 368.512 851.041 357.632 851.041 342.4C851.041 326.896 857.977 316.288 868.449 316.288C878.921 316.288 886.129 327.304 886.129 342.4C886.129 357.768 879.329 368.512 868.721 368.512Z" fill="white"/>
<path d="M938.465 390H964.441V294.12H945.265L917.385 302.008L922.417 322.408L938.465 318.736V390Z" fill="white"/>
<path d="M995.84 390H1021.82V294.12H1002.64L974.76 302.008L979.792 322.408L995.84 318.736V390Z" fill="white"/>
<path d="M1080.55 391.904C1107.75 391.904 1124.75 369.328 1124.75 342.4C1124.75 315.2 1107.89 292.896 1080.82 292.896C1053.76 292.896 1036.62 315.472 1036.62 342.4C1036.62 369.6 1053.35 391.904 1080.55 391.904ZM1080.82 368.512C1070.21 368.512 1063.14 357.632 1063.14 342.4C1063.14 326.896 1070.08 316.288 1080.55 316.288C1091.02 316.288 1098.23 327.304 1098.23 342.4C1098.23 357.768 1091.43 368.512 1080.82 368.512Z" fill="white"/>
<path d="M1150.57 390H1176.54V294.12H1157.37L1129.49 302.008L1134.52 322.408L1150.57 318.736V390Z" fill="white"/>
<path d="M1235.28 391.904C1262.48 391.904 1279.48 369.328 1279.48 342.4C1279.48 315.2 1262.61 292.896 1235.55 292.896C1208.49 292.896 1191.35 315.472 1191.35 342.4C1191.35 369.6 1208.08 391.904 1235.28 391.904ZM1235.55 368.512C1224.94 368.512 1217.87 357.632 1217.87 342.4C1217.87 326.896 1224.81 316.288 1235.28 316.288C1245.75 316.288 1252.96 327.304 1252.96 342.4C1252.96 357.768 1246.16 368.512 1235.55 368.512Z" fill="white"/>
<path d="M1305.29 390H1331.27V294.12H1312.09L1284.21 302.008L1289.24 322.408L1305.29 318.736V390Z" fill="white"/>
<path d="M1390 391.904C1417.2 391.904 1434.2 369.328 1434.2 342.4C1434.2 315.2 1417.34 292.896 1390.28 292.896C1363.21 292.896 1346.08 315.472 1346.08 342.4C1346.08 369.6 1362.8 391.904 1390 391.904ZM1390.28 368.512C1379.67 368.512 1372.6 357.632 1372.6 342.4C1372.6 326.896 1379.53 316.288 1390 316.288C1400.48 316.288 1407.68 327.304 1407.68 342.4C1407.68 357.768 1400.88 368.512 1390.28 368.512Z" fill="white"/>
<path d="M1460.02 390H1486V294.12H1466.82L1438.94 302.008L1443.97 322.408L1460.02 318.736V390Z" fill="white"/>
<path d="M1544.73 391.904C1571.93 391.904 1588.93 369.328 1588.93 342.4C1588.93 315.2 1572.07 292.896 1545 292.896C1517.94 292.896 1500.8 315.472 1500.8 342.4C1500.8 369.6 1517.53 391.904 1544.73 391.904ZM1545 368.512C1534.39 368.512 1527.32 357.632 1527.32 342.4C1527.32 326.896 1534.26 316.288 1544.73 316.288C1555.2 316.288 1562.41 327.304 1562.41 342.4C1562.41 357.768 1555.61 368.512 1545 368.512Z" fill="white"/>
<path d="M1644.07 391.904C1671.27 391.904 1688.27 369.328 1688.27 342.4C1688.27 315.2 1671.41 292.896 1644.35 292.896C1617.28 292.896 1600.15 315.472 1600.15 342.4C1600.15 369.6 1616.87 391.904 1644.07 391.904ZM1644.35 368.512C1633.74 368.512 1626.67 357.632 1626.67 342.4C1626.67 326.896 1633.6 316.288 1644.07 316.288C1654.55 316.288 1661.75 327.304 1661.75 342.4C1661.75 357.768 1654.95 368.512 1644.35 368.512Z" fill="white"/>
<path d="M1714.09 390H1740.07V294.12H1720.89L1693.01 302.008L1698.04 322.408L1714.09 318.736V390Z" fill="white"/>
<path d="M1798.8 391.904C1826 391.904 1843 369.328 1843 342.4C1843 315.2 1826.14 292.896 1799.07 292.896C1772.01 292.896 1754.87 315.472 1754.87 342.4C1754.87 369.6 1771.6 391.904 1798.8 391.904ZM1799.07 368.512C1788.46 368.512 1781.39 357.632 1781.39 342.4C1781.39 326.896 1788.33 316.288 1798.8 316.288C1809.27 316.288 1816.48 327.304 1816.48 342.4C1816.48 357.768 1809.68 368.512 1799.07 368.512Z" fill="white"/>
</g>
</svg>
