<svg width="536" height="179" viewBox="0 0 536 179" fill="none" xmlns="http://www.w3.org/2000/svg">
<g filter="url(#filter0_d)">
<path d="M40 114.66H42.4349V137.967H40V114.66Z" fill="white"/>
<path d="M54.4042 116.791H46.3097V114.66H64.9337V116.791H56.8391V137.967H54.4042V116.791Z" fill="white"/>
<path d="M69.5251 113.095C70.0297 113.095 70.4464 113.272 70.7755 113.628C71.1045 113.96 71.2691 114.382 71.2691 114.893C71.2691 115.159 71.2252 115.448 71.1374 115.758C71.0716 116.047 70.9729 116.391 70.8413 116.791L69.4264 121.386H67.847L68.9986 116.591C68.6257 116.48 68.3296 116.28 68.1102 115.992C67.8909 115.681 67.7812 115.315 67.7812 114.893C67.7812 114.36 67.9457 113.927 68.2747 113.594C68.6038 113.261 69.0206 113.095 69.5251 113.095Z" fill="white"/>
<path d="M83.4003 138.167C81.6892 138.167 80.044 137.889 78.4646 137.334C76.9071 136.779 75.7006 136.047 74.8451 135.137L75.7993 133.239C76.6329 134.082 77.7407 134.771 79.1227 135.303C80.5047 135.814 81.9305 136.069 83.4003 136.069C85.4623 136.069 87.0088 135.692 88.0398 134.937C89.0708 134.16 89.5863 133.161 89.5863 131.94C89.5863 131.008 89.3012 130.264 88.7308 129.71C88.1824 129.155 87.5024 128.733 86.6907 128.444C85.8791 128.134 84.7494 127.801 83.3016 127.445C81.5686 127.001 80.1866 126.58 79.1556 126.18C78.1246 125.758 77.2362 125.126 76.4903 124.282C75.7664 123.439 75.4045 122.296 75.4045 120.853C75.4045 119.676 75.7116 118.611 76.3258 117.656C76.94 116.68 77.8833 115.903 79.1556 115.326C80.4279 114.748 82.0073 114.46 83.8939 114.46C85.21 114.46 86.4933 114.649 87.7437 115.026C89.016 115.381 90.1128 115.881 91.0341 116.524L90.2115 118.489C89.2463 117.845 88.2153 117.368 87.1185 117.057C86.0217 116.724 84.9468 116.558 83.8939 116.558C81.8757 116.558 80.3511 116.957 79.3201 117.756C78.3111 118.533 77.8065 119.543 77.8065 120.786C77.8065 121.718 78.0807 122.473 78.6291 123.05C79.1995 123.605 79.9014 124.038 80.735 124.349C81.5905 124.637 82.7312 124.959 84.1571 125.314C85.8462 125.736 87.2062 126.158 88.2372 126.58C89.2902 126.979 90.1786 127.601 90.9025 128.444C91.6264 129.266 91.9884 130.387 91.9884 131.807C91.9884 132.984 91.6703 134.06 91.0341 135.037C90.4199 135.991 89.4657 136.757 88.1714 137.334C86.8772 137.889 85.2868 138.167 83.4003 138.167Z" fill="white"/>
<path d="M110.38 116.791H102.286V114.66H120.91V116.791H112.815V137.967H110.38V116.791Z" fill="white"/>
<path d="M124.8 114.66H127.235V137.967H124.8V114.66Z" fill="white"/>
<path d="M158.651 114.66V137.967H156.314V119.321L147.266 135.004H146.114L137.065 119.421V137.967H134.729V114.66H136.736L146.739 131.94L156.643 114.66H158.651Z" fill="white"/>
<path d="M182.443 135.836V137.967H166.155V114.66H181.95V116.791H168.59V125.081H180.502V127.179H168.59V135.836H182.443Z" fill="white"/>
<path d="M201.253 116.791H193.159V114.66H211.783V116.791H203.688V137.967H201.253V116.791Z" fill="white"/>
<path d="M225.42 138.167C223.139 138.167 221.066 137.656 219.201 136.635C217.359 135.592 215.911 134.171 214.858 132.373C213.827 130.575 213.311 128.555 213.311 126.313C213.311 124.071 213.827 122.051 214.858 120.253C215.911 118.455 217.359 117.046 219.201 116.025C221.066 114.982 223.139 114.46 225.42 114.46C227.702 114.46 229.753 114.97 231.573 115.992C233.416 117.013 234.864 118.433 235.917 120.253C236.97 122.051 237.496 124.071 237.496 126.313C237.496 128.555 236.97 130.586 235.917 132.407C234.864 134.204 233.416 135.614 231.573 136.635C229.753 137.656 227.702 138.167 225.42 138.167ZM225.42 135.969C227.241 135.969 228.886 135.559 230.356 134.737C231.826 133.894 232.977 132.739 233.811 131.274C234.645 129.787 235.061 128.134 235.061 126.313C235.061 124.493 234.645 122.851 233.811 121.386C232.977 119.898 231.826 118.744 230.356 117.923C228.886 117.079 227.241 116.657 225.42 116.657C223.6 116.657 221.943 117.079 220.452 117.923C218.982 118.744 217.819 119.898 216.964 121.386C216.13 122.851 215.713 124.493 215.713 126.313C215.713 128.134 216.13 129.787 216.964 131.274C217.819 132.739 218.982 133.894 220.452 134.737C221.943 135.559 223.6 135.969 225.42 135.969Z" fill="white"/>
<path d="M283.187 114.66L275.422 137.967H272.855L266.11 118.089L259.331 137.967H256.798L249.032 114.66H251.533L258.18 134.704L265.057 114.66H267.327L274.105 134.804L280.851 114.66H283.187Z" fill="white"/>
<path d="M287.651 114.66H290.086V137.967H287.651V114.66Z" fill="white"/>
<path d="M316.83 114.66V137.967H314.823L300.016 119.055V137.967H297.581V114.66H299.588L314.428 133.572V114.66H316.83Z" fill="white"/>
<path d="M347.47 125.947C348.984 126.28 350.147 126.946 350.958 127.945C351.792 128.922 352.209 130.187 352.209 131.741C352.209 133.738 351.474 135.281 350.004 136.369C348.556 137.434 346.406 137.967 343.555 137.967H332.959V114.66H342.897C345.463 114.66 347.448 115.181 348.852 116.225C350.278 117.268 350.991 118.744 350.991 120.653C350.991 121.94 350.673 123.039 350.037 123.949C349.423 124.837 348.567 125.503 347.47 125.947ZM335.394 116.691V125.148H342.732C344.597 125.148 346.034 124.793 347.043 124.082C348.052 123.35 348.556 122.296 348.556 120.919C348.556 119.543 348.052 118.5 347.043 117.79C346.034 117.057 344.597 116.691 342.732 116.691H335.394ZM343.522 135.936C345.584 135.936 347.141 135.581 348.194 134.87C349.247 134.16 349.774 133.05 349.774 131.541C349.774 128.633 347.69 127.179 343.522 127.179H335.394V135.936H343.522Z" fill="white"/>
<path d="M365.181 129.909V137.967H362.779V129.909L353.566 114.66H356.166L364.063 127.745L371.96 114.66H374.395L365.181 129.909Z" fill="white"/>
<path d="M401.228 131.741H388.395L385.631 137.967H383.097L393.627 114.66H396.029L406.558 137.967H403.992L401.228 131.741ZM400.339 129.743L394.811 117.224L389.283 129.743H400.339Z" fill="white"/>
<path d="M442.902 114.66V137.967H440.566V119.321L431.517 135.004H430.365L421.317 119.421V137.967H418.98V114.66H420.987L430.99 131.94L440.895 114.66H442.902Z" fill="white"/>
<path d="M450.407 114.66H452.842V137.967H450.407V114.66Z" fill="white"/>
<path d="M460.336 114.66H462.771V135.836H475.669V137.967H460.336V114.66Z" fill="white"/>
<path d="M496 135.836V137.967H479.712V114.66H495.506V116.791H482.147V125.081H494.059V127.179H482.147V135.836H496Z" fill="white"/>
<path d="M65.668 89.0333C60.8369 89.0333 56.4573 87.9949 52.5292 85.9179C48.6463 83.7959 45.5761 80.8837 43.3186 77.1813C41.1062 73.4339 40 69.2123 40 64.5167C40 59.821 41.1062 55.622 43.3186 51.9197C45.5761 48.1722 48.6463 45.26 52.5292 43.1831C56.4573 41.061 60.8595 40 65.7357 40C69.8444 40 73.5467 40.7224 76.8427 42.1672C80.1838 43.612 82.9832 45.6889 85.2407 48.398L78.1972 54.8996C74.9916 51.1973 71.0183 49.3461 66.2775 49.3461C63.3428 49.3461 60.724 50.0008 58.4214 51.3102C56.1187 52.5744 54.3127 54.3578 53.0033 56.6605C51.7391 58.9632 51.107 61.5819 51.107 64.5167C51.107 67.4514 51.7391 70.0702 53.0033 72.3728C54.3127 74.6755 56.1187 76.4815 58.4214 77.7909C60.724 79.0551 63.3428 79.6872 66.2775 79.6872C71.0183 79.6872 74.9916 77.8134 78.1972 74.066L85.2407 80.5676C82.9832 83.3218 80.1838 85.4213 76.8427 86.8661C73.5016 88.3109 69.7767 89.0333 65.668 89.0333Z" fill="white"/>
<path d="M114.617 89.0333C109.695 89.0333 105.248 87.9723 101.275 85.8502C97.3466 83.7281 94.2538 80.8159 91.9963 77.1136C89.7839 73.3661 88.6778 69.1671 88.6778 64.5167C88.6778 59.8662 89.7839 55.6898 91.9963 51.9874C94.2538 48.2399 97.3466 45.3052 101.275 43.1831C105.248 41.061 109.695 40 114.617 40C119.538 40 123.963 41.061 127.891 43.1831C131.819 45.3052 134.912 48.2399 137.169 51.9874C139.427 55.6898 140.556 59.8662 140.556 64.5167C140.556 69.1671 139.427 73.3661 137.169 77.1136C134.912 80.8159 131.819 83.7281 127.891 85.8502C123.963 87.9723 119.538 89.0333 114.617 89.0333ZM114.617 79.6872C117.416 79.6872 119.944 79.0551 122.202 77.7909C124.459 76.4815 126.22 74.6755 127.485 72.3728C128.794 70.0702 129.449 67.4514 129.449 64.5167C129.449 61.5819 128.794 58.9632 127.485 56.6605C126.22 54.3578 124.459 52.5744 122.202 51.3102C119.944 50.0008 117.416 49.3461 114.617 49.3461C111.817 49.3461 109.289 50.0008 107.031 51.3102C104.774 52.5744 102.99 54.3578 101.681 56.6605C100.417 58.9632 99.7848 61.5819 99.7848 64.5167C99.7848 67.4514 100.417 70.0702 101.681 72.3728C102.99 74.6755 104.774 76.4815 107.031 77.7909C109.289 79.0551 111.817 79.6872 114.617 79.6872Z" fill="white"/>
<path d="M148.801 40.8127H170.338C175.485 40.8127 180.023 41.806 183.951 43.7926C187.924 45.7341 190.994 48.4883 193.161 52.0552C195.374 55.622 196.48 59.7759 196.48 64.5167C196.48 69.2574 195.374 73.4113 193.161 76.9782C190.994 80.545 187.924 83.3218 183.951 85.3084C180.023 87.2499 175.485 88.2206 170.338 88.2206H148.801V40.8127ZM169.796 79.2131C174.537 79.2131 178.307 77.9037 181.106 75.285C183.951 72.6212 185.373 69.0317 185.373 64.5167C185.373 60.0016 183.951 56.4347 181.106 53.816C178.307 51.1521 174.537 49.8202 169.796 49.8202H159.773V79.2131H169.796Z" fill="white"/>
<path d="M241.461 79.4163V88.2206H204.754V40.8127H240.581V49.617H215.658V59.9113H237.669V68.4447H215.658V79.4163H241.461Z" fill="white"/>
<path d="M299.577 88.2206L290.434 75.0141H280.343V88.2206H269.371V40.8127H289.892C294.091 40.8127 297.726 41.5125 300.796 42.9122C303.911 44.3119 306.304 46.2985 307.975 48.872C309.645 51.4456 310.481 54.4933 310.481 58.015C310.481 61.5367 309.623 64.5844 307.907 67.158C306.236 69.6864 303.844 71.6278 300.728 72.9824L311.361 88.2206H299.577ZM299.374 58.015C299.374 55.3511 298.516 53.3194 296.8 51.9197C295.084 50.4749 292.578 49.7525 289.283 49.7525H280.343V66.2775H289.283C292.578 66.2775 295.084 65.5551 296.8 64.1103C298.516 62.6655 299.374 60.6337 299.374 58.015Z" fill="white"/>
<path d="M355.881 79.4163V88.2206H319.173V40.8127H355V49.617H330.077V59.9113H352.088V68.4447H330.077V79.4163H355.881Z" fill="white"/>
<path d="M364.61 40.8127H375.582V79.2808H399.354V88.2206H364.61V40.8127Z" fill="white"/>
<path d="M437.102 78.0618H415.091L410.892 88.2206H399.65L420.78 40.8127H431.616L452.814 88.2206H441.301L437.102 78.0618ZM433.648 69.7315L426.13 51.5811L418.613 69.7315H433.648Z" fill="white"/>
<path d="M477.579 71.4247V88.2206H466.607V71.2892L448.253 40.8127H459.902L472.567 61.8754L485.232 40.8127H496L477.579 71.4247Z" fill="white"/>
</g>
<defs>
<filter id="filter0_d" x="0" y="0" width="536" height="178.167" filterUnits="userSpaceOnUse" color-interpolation-filters="sRGB">
<feFlood flood-opacity="0" result="BackgroundImageFix"/>
<feColorMatrix in="SourceAlpha" type="matrix" values="0 0 0 0 0 0 0 0 0 0 0 0 0 0 0 0 0 0 127 0"/>
<feOffset/>
<feGaussianBlur stdDeviation="20"/>
<feColorMatrix type="matrix" values="0 0 0 0 0 0 0 0 0 0 0 0 0 0 0 0 0 0 0.16 0"/>
<feBlend mode="normal" in2="BackgroundImageFix" result="effect1_dropShadow"/>
<feBlend mode="normal" in="SourceGraphic" in2="effect1_dropShadow" result="shape"/>
</filter>
</defs>
</svg>
