<svg width="58" height="64" viewBox="0 0 58 64" fill="none" xmlns="http://www.w3.org/2000/svg">
<path fill-rule="evenodd" clip-rule="evenodd" d="M57.1575 46.6113C57.7108 41.7843 57.9865 36.9296 57.9832 32.0709C57.9893 27.252 57.7221 22.4365 57.183 17.6478C57.1809 17.627 57.1788 17.6062 57.1768 17.5855C57.1655 17.4725 57.1543 17.3602 57.1371 17.2468C56.9977 16.419 56.5777 15.6643 55.9478 15.1094C55.9393 15.0975 55.9308 15.089 55.9223 15.089C55.7881 14.9837 55.6555 14.8851 55.5213 14.7917C51.6525 11.9312 47.625 9.29177 43.4581 6.88603C39.2641 4.45992 34.9347 2.27591 30.491 0.344713C30.3993 0.302237 30.3075 0.259761 30.2158 0.222382C30.2017 0.214283 30.1861 0.209085 30.1699 0.207091C29.3975 -0.074198 28.5498 -0.0687722 27.781 0.222382C27.7556 0.233618 27.7301 0.243863 27.7049 0.253991C27.673 0.266835 27.6415 0.279492 27.6111 0.293741C18.7292 4.15424 10.3125 9.00697 2.52138 14.7594C2.36167 14.8715 2.20366 14.9888 2.04565 15.1094C2.04188 15.11 2.03834 15.1116 2.03536 15.114C2.03239 15.1163 2.03008 15.1194 2.02866 15.123C1.40894 15.6775 0.996637 16.4266 0.859716 17.2468C0.839327 17.381 0.825737 17.5135 0.813843 17.6478C-0.276932 27.2707 -0.271234 36.9863 0.830832 46.6079C0.88782 47.092 1.04085 47.5599 1.28096 47.9841C1.52107 48.4083 1.84343 48.7803 2.22915 49.0784C2.29201 49.1293 2.35827 49.1752 2.42453 49.2211C6.27845 52.0747 10.2931 54.7047 14.4487 57.0978C18.6334 59.5159 22.9513 61.6958 27.3818 63.6273C27.3827 63.6278 27.3837 63.6282 27.3847 63.6285C27.3857 63.6287 27.3867 63.6288 27.3877 63.6288C27.3898 63.6288 27.3919 63.6283 27.3937 63.6273C27.4453 63.6521 27.4976 63.6744 27.5494 63.6964C27.5828 63.7106 27.6159 63.7248 27.6485 63.7394C28.5214 64.0869 29.4941 64.0869 30.367 63.7394C30.3914 63.7294 30.4152 63.7181 30.4383 63.7054C30.4636 63.6935 30.49 63.6821 30.5167 63.6707C30.5548 63.6543 30.5934 63.6377 30.6303 63.6188C35.0529 61.689 39.3638 59.5131 43.5431 57.1012C47.6951 54.7068 51.7069 52.0769 55.5587 49.2245L55.5589 49.2244C55.6251 49.1785 55.6913 49.1327 55.7541 49.0818C56.141 48.7845 56.4645 48.4127 56.7056 47.9884C56.9466 47.5642 57.1002 47.0959 57.1575 46.6113ZM40.5782 44.3754H41.635C41.7855 44.375 41.9327 44.42 42.0572 44.5046C42.1817 44.5892 42.2777 44.7094 42.3328 44.8494C42.3879 44.9895 42.3994 45.1429 42.3658 45.2897C42.3323 45.4364 42.2552 45.5696 42.1447 45.6718L37.6864 49.8208C37.5479 49.9495 37.3658 50.0209 37.1767 50.0209C36.9877 50.0209 36.8056 49.9495 36.667 49.8208L32.2087 45.6718C32.0982 45.5696 32.0212 45.4364 31.9876 45.2897C31.954 45.1429 31.9656 44.9895 32.0206 44.8494C32.0757 44.7094 32.1718 44.5892 32.2963 44.5046C32.4208 44.42 32.5679 44.375 32.7184 44.3754H33.7752V35.4316H24.2011V45.4067C24.2011 45.5975 24.1255 45.7805 23.9907 45.9155C23.856 46.0506 23.6732 46.1267 23.4824 46.1271H18.1186C17.9278 46.1267 17.745 46.0506 17.6103 45.9155C17.4755 45.7805 17.3999 45.5975 17.3999 45.4067V19.6322H16.3397C16.1892 19.6327 16.042 19.5876 15.9175 19.5031C15.793 19.4185 15.6969 19.2983 15.6419 19.1582C15.5868 19.0181 15.5753 18.8647 15.6088 18.718C15.6424 18.5713 15.7195 18.4381 15.83 18.3359L20.2882 14.1868C20.427 14.0586 20.609 13.9873 20.798 13.9873C20.9869 13.9873 21.1689 14.0586 21.3077 14.1868L25.7626 18.3359C25.873 18.4381 25.9501 18.5713 25.9837 18.718C26.0172 18.8647 26.0057 19.0181 25.9506 19.1582C25.8956 19.2983 25.7995 19.4185 25.675 19.5031C25.5505 19.5876 25.4034 19.6327 25.2528 19.6322H24.196V28.5709H33.7752V18.5941C33.7752 18.4997 33.7938 18.4063 33.8299 18.3191C33.8661 18.2319 33.919 18.1527 33.9857 18.0859C34.0525 18.0192 34.1317 17.9663 34.2189 17.9301C34.3061 17.894 34.3996 17.8754 34.4939 17.8754H39.8595C40.0501 17.8754 40.2329 17.9512 40.3677 18.0859C40.5025 18.2207 40.5782 18.4035 40.5782 18.5941V44.3754Z" fill="white"/>
</svg>
